<svg width="83" height="84" viewBox="0 0 83 84" fill="none" xmlns="http://www.w3.org/2000/svg">
<g clip-path="url(#clip0_184_1793)">
<path d="M17.0556 0V5.33334H5.05565V78.6667H17.0556V84H-0.277344V0H17.0556Z" fill="white"/>
<path d="M61.7176 28.7833C60.8906 21.5203 54.5686 19.1911 46.6276 18.635L46.4516 8.5437L40.3086 8.6518L40.4806 18.4772C38.8656 18.5053 37.2156 18.5661 35.5766 18.6274L35.4046 8.73674L29.2656 8.84388L29.4396 18.9324C28.1106 18.9829 26.8046 19.0307 25.5316 19.0535L25.5306 19.022L17.0586 19.1667L17.1746 25.7272C17.1746 25.7272 21.7086 25.5618 21.6346 25.6462C24.1226 25.6034 24.9576 27.034 25.2156 28.2762L25.4166 39.7724C25.5886 39.7701 25.8126 39.7733 26.0666 39.8041C25.8616 39.8078 25.6436 39.8105 25.4176 39.8166L25.6976 55.9217C25.6026 56.7065 25.1636 57.9634 23.4256 57.9965C23.5056 58.0647 18.9606 58.0735 18.9606 58.0735L17.8676 65.4308L25.8616 65.291C27.3496 65.267 28.8136 65.2667 30.2506 65.2502L30.4316 75.4565L36.5676 75.3502L36.3906 65.2517C38.0766 65.2572 39.7066 65.2421 41.2986 65.213L41.4716 75.2647L47.6146 75.1565L47.4376 64.9683C57.7546 64.1956 64.9376 61.4681 65.6646 51.7543C66.2536 43.9329 62.5196 40.513 56.6326 39.2076C60.1626 37.3317 62.3336 34.0978 61.7196 28.7835L61.7176 28.7833ZM53.5046 50.7566C53.6406 58.3838 40.5666 57.7444 36.4036 57.821L36.1686 44.2981C40.3326 44.2267 53.3656 42.8012 53.5046 50.7566ZM50.3146 31.7276C50.4336 38.6666 39.5286 38.0472 36.0606 38.1079L35.8466 25.8437C39.3146 25.783 50.1876 24.4905 50.3146 31.7276Z" fill="#C53400"/>
<path d="M83.0557 84V0H65.7227V5.33334H77.7227V78.6667H65.7227V84H83.0557Z" fill="white"/>
</g>
<defs>
<clipPath id="clip0_184_1793">
<rect width="83" height="84" fill="white"/>
</clipPath>
</defs>
</svg>
