<svg width="181" height="181" viewBox="0 0 181 181" fill="none" xmlns="http://www.w3.org/2000/svg">
<circle opacity="0.5" cx="90.5" cy="90.5" r="86.7808" fill="#2FA98C"/>
<circle cx="90.5" cy="90.5" r="77.5" fill="#2FA98C"/>
<path d="M61.3763 40.911V47.208H47.208V133.792H61.3763V140.089H40.9109V40.911H61.3763Z" fill="white"/>
<path d="M119.846 82.7587C121.073 74.4577 114.825 69.9955 106.282 67.0189L109.054 55.7743L102.287 54.0688L99.5887 65.0172C97.8098 64.5684 95.9829 64.1455 94.1671 63.7263L96.8847 52.7056L90.1221 51L87.3491 62.2409C85.8769 61.9018 84.431 61.5667 83.0282 61.2137L83.0361 61.1783L73.7045 58.8212L71.9044 66.1319C71.9044 66.1319 76.9248 67.296 76.819 67.3677C79.5592 68.0595 80.0548 69.8943 79.9725 71.3487L76.8154 84.1588C77.0041 84.2073 77.2488 84.2774 77.5189 84.3872C77.2932 84.3305 77.0529 84.2686 76.8037 84.2082L72.3785 102.153C72.0437 102.995 71.1937 104.259 69.2778 103.779C69.3457 103.879 64.3596 102.538 64.3596 102.538L61 110.373L69.8059 112.594C71.4441 113.009 73.0495 113.444 74.6304 113.853L71.8303 125.226L78.5893 126.932L81.3623 115.679C83.2088 116.186 85.0007 116.654 86.755 117.095L83.9913 128.294L90.7584 130L93.5583 118.648C105.097 120.857 113.773 119.966 117.425 109.409C120.368 100.909 117.279 96.0064 111.208 92.8093C115.63 91.7778 118.96 88.8362 119.848 82.7596L119.846 82.7581L119.846 82.7587ZM104.385 104.689C102.294 113.188 88.146 108.594 83.559 107.441L87.2749 92.3736C91.8616 93.5319 106.571 95.8241 104.386 104.689H104.385ZM106.478 82.6355C104.57 90.3671 92.7948 86.4391 88.9749 85.4759L92.3439 71.8103C96.1637 72.7734 108.465 74.5711 106.479 82.6355H106.478Z" fill="white"/>
<path d="M140.089 140.089V40.911H119.624V47.208H133.792V133.792H119.624V140.089H140.089Z" fill="white"/>
<circle cx="129.545" cy="129.544" r="16.2939" fill="#063225" stroke="#063225" stroke-width="2.5"/>
<path d="M126.875 136.562H122.528L126.817 129.407L123.035 122.526H127.323L129.643 127.159L132.177 122.526H136.29L132.353 129.544L136.563 136.562H132.197L129.546 131.733L126.875 136.562Z" fill="white"/>
</svg>
